<svg aria-hidden="true" style="position: absolute; width: 0; height: 0; overflow: hidden;" version="1.1" xmlns="http://www.w3.org/2000/svg" xmlns:xlink="http://www.w3.org/1999/xlink">
<defs>
<symbol id="icon-film" viewBox="0 0 32 32">
<path fill="none" stroke="#818181" style="stroke: var(--color1, #818181)" stroke-linejoin="round" stroke-linecap="round" stroke-miterlimit="4" stroke-width="2.6667" d="M26.427 2.667h-20.853c-1.605 0-2.907 1.301-2.907 2.907v20.853c0 1.605 1.301 2.907 2.907 2.907h20.853c1.605 0 2.907-1.301 2.907-2.907v-20.853c0-1.605-1.301-2.907-2.907-2.907z"></path>
<path fill="none" stroke="#818181" style="stroke: var(--color1, #818181)" stroke-linejoin="round" stroke-linecap="round" stroke-miterlimit="4" stroke-width="2.6667" d="M9.333 2.667v26.667"></path>
<path fill="none" stroke="#818181" style="stroke: var(--color1, #818181)" stroke-linejoin="round" stroke-linecap="round" stroke-miterlimit="4" stroke-width="2.6667" d="M22.667 2.667v26.667"></path>
<path fill="none" stroke="#818181" style="stroke: var(--color1, #818181)" stroke-linejoin="round" stroke-linecap="round" stroke-miterlimit="4" stroke-width="2.6667" d="M2.667 16h26.667"></path>
<path fill="none" stroke="#818181" style="stroke: var(--color1, #818181)" stroke-linejoin="round" stroke-linecap="round" stroke-miterlimit="4" stroke-width="2.6667" d="M2.667 9.333h6.667"></path>
<path fill="none" stroke="#818181" style="stroke: var(--color1, #818181)" stroke-linejoin="round" stroke-linecap="round" stroke-miterlimit="4" stroke-width="2.6667" d="M2.667 22.667h6.667"></path>
<path fill="none" stroke="#818181" style="stroke: var(--color1, #818181)" stroke-linejoin="round" stroke-linecap="round" stroke-miterlimit="4" stroke-width="2.6667" d="M22.667 22.667h6.667"></path>
<path fill="none" stroke="#818181" style="stroke: var(--color1, #818181)" stroke-linejoin="round" stroke-linecap="round" stroke-miterlimit="4" stroke-width="2.6667" d="M22.667 9.333h6.667"></path>
</symbol>
<symbol id="icon-search" viewBox="0 0 32 32">
<path fill="none" stroke="#fff" style="stroke: var(--color2, #fff)" stroke-linejoin="round" stroke-linecap="round" stroke-miterlimit="4" stroke-width="2.6667" d="M14.667 25.333c5.891 0 10.667-4.776 10.667-10.667s-4.776-10.667-10.667-10.667c-5.891 0-10.667 4.776-10.667 10.667s4.776 10.667 10.667 10.667z"></path>
<path fill="none" stroke="#fff" style="stroke: var(--color2, #fff)" stroke-linejoin="round" stroke-linecap="round" stroke-miterlimit="4" stroke-width="2.6667" d="M28 28l-5.8-5.8"></path>
</symbol>
<symbol id="github" viewBox="0 0 32 32">
<path fill="#afb1b8" style="fill: var(--color1, #afb1b8)" d="M16 0A16 16 0 000 16c0 7.5 5.3 14.3 12.3 16v-5.3c-.7.2-1.4.2-2 0a4 4 0 01-2.4-2c-.3-.5-1-1.2-1.6-1.1l-.2-2c1.4 0 2.7 1 3.4 2.2.4.6.8 1 1.2 1 .5.2 1 .1 1.6 0 .2-1.3.7-1.7 1.1-2.3-4.1-.7-5.8-2.9-6.5-4.6a7.3 7.3 0 011.2-7v-.2c-.7-2.2.2-4 .2-4.1.8.2 1-.3 3.6 1.3l.4.3h.3c1.1-.3 2.3-.5 3.4-.5s2.3.2 3.4.5H19.7c3.2-2 3.1-1.4 4-1.6 0 .1.9 2 .2 4-.1.3 2.8 3 1.2 7.3-.7 1.7-2.4 4-6.5 4.6.5.8 1.2 1.2 1.1 2.9V32c7-1.7 12.3-8.5 12.3-16A16 16 0 0016 0z"/>
</symbol>
<symbol id="facebook" viewBox="0 0 33 32">
<path fill="#afb1b8" style="fill: var(--color1, #afb1b8)" d="M21.927 5.252h2.813v-4.899c-0.485-0.067-2.154-0.217-4.098-0.217-4.056 0-6.834 2.551-6.834 7.24v4.315h-4.475v5.477h4.475v13.781h5.487v-13.779h4.294l0.682-5.477h-4.977v-3.773c0.001-1.583 0.427-2.667 2.633-2.667z"></path>
</symbol>
<symbol id="instagram" viewBox="0 0 32 32">
<path fill="#afb1b8" style="fill: var(--color1, #afb1b8)" d="M31.604 9.195c-0.072-1.637-0.337-2.763-0.716-3.738-0.391-1.035-0.993-1.962-1.782-2.733-0.771-0.782-1.704-1.391-2.727-1.776-0.981-0.379-2.101-0.644-3.738-0.716-1.649-0.078-2.173-0.096-6.356-0.096s-4.707 0.018-6.35 0.090c-1.637 0.072-2.763 0.337-3.738 0.716-1.035 0.391-1.962 0.993-2.733 1.782-0.782 0.771-1.39 1.703-1.776 2.727-0.379 0.981-0.644 2.101-0.716 3.738-0.078 1.649-0.096 2.173-0.096 6.356s0.018 4.707 0.090 6.35c0.072 1.637 0.337 2.763 0.716 3.738 0.391 1.035 0.999 1.962 1.782 2.733 0.771 0.782 1.703 1.39 2.727 1.776 0.981 0.379 2.101 0.644 3.738 0.716 1.643 0.072 2.167 0.090 6.35 0.090s4.707-0.018 6.35-0.090c1.637-0.072 2.763-0.337 3.738-0.716 2.071-0.801 3.708-2.438 4.508-4.508 0.379-0.981 0.644-2.101 0.716-3.738 0.072-1.643 0.090-2.167 0.090-6.35s-0.006-4.707-0.078-6.35zM28.83 21.775c-0.066 1.505-0.319 2.317-0.53 2.859-0.518 1.342-1.583 2.408-2.925 2.925-0.542 0.211-1.36 0.463-2.859 0.529-1.625 0.072-2.113 0.090-6.224 0.090s-4.605-0.018-6.224-0.090c-1.505-0.066-2.317-0.319-2.859-0.529-0.668-0.247-1.276-0.638-1.77-1.15-0.512-0.5-0.903-1.102-1.15-1.77-0.211-0.542-0.463-1.36-0.53-2.859-0.072-1.625-0.090-2.113-0.090-6.224s0.018-4.605 0.090-6.224c0.066-1.505 0.319-2.317 0.53-2.859 0.247-0.668 0.638-1.276 1.156-1.77 0.499-0.512 1.101-0.903 1.77-1.149 0.542-0.211 1.36-0.463 2.859-0.53 1.625-0.072 2.113-0.090 6.224-0.090 4.117 0 4.605 0.018 6.224 0.090 1.505 0.066 2.317 0.319 2.859 0.53 0.668 0.247 1.276 0.638 1.769 1.149 0.512 0.5 0.903 1.102 1.15 1.77 0.211 0.542 0.463 1.36 0.53 2.859 0.072 1.625 0.090 2.113 0.090 6.224s-0.018 4.593-0.090 6.218z"></path>
<path fill="#afb1b8" style="fill: var(--color1, #afb1b8)" d="M16.286 7.63c-4.37 0-7.915 3.545-7.915 7.915s3.545 7.915 7.915 7.915c4.37 0 7.915-3.545 7.915-7.915s-3.545-7.915-7.915-7.915zM16.286 20.679c-2.835 0-5.134-2.299-5.134-5.134s2.3-5.134 5.134-5.134c2.835 0 5.134 2.299 5.134 5.134s-2.299 5.134-5.134 5.134z"></path>
<path fill="#afb1b8" style="fill: var(--color1, #afb1b8)" d="M26.362 7.317c0 1.020-0.828 1.848-1.848 1.848s-1.848-0.827-1.848-1.848c0-1.021 0.827-1.848 1.848-1.848s1.848 0.827 1.848 1.848z"></path>
</symbol>
<symbol id="linkedin" viewBox="0 0 32 32">
<path fill="#afb1b8" style="fill: var(--color1, #afb1b8)" d="M31.023 30.948v-0.001h0.008v-11.3c0-5.528-1.19-9.787-7.653-9.787-3.107 0-5.192 1.705-6.043 3.321h-0.090v-2.805h-6.128v20.571h6.381v-10.186c0-2.682 0.508-5.275 3.83-5.275 3.272 0 3.321 3.061 3.321 5.447v10.015h6.374z"></path>
<path fill="#afb1b8" style="fill: var(--color1, #afb1b8)" d="M0.727 10.377h6.388v20.571h-6.388v-20.571z"></path>
<path fill="#afb1b8" style="fill: var(--color1, #afb1b8)" d="M3.919 0.136c-2.043 0-3.7 1.657-3.7 3.7s1.657 3.735 3.7 3.735c2.043 0 3.7-1.692 3.7-3.735-0.001-2.043-1.659-3.7-3.7-3.7v0z"></path>
</symbol>
</defs>
</svg>